<?xml version="1.0" encoding="UTF-8" standalone="no"?>
<!DOCTYPE svg PUBLIC "-//W3C//DTD SVG 1.1//EN" "http://www.w3.org/Graphics/SVG/1.1/DTD/svg11.dtd">
<svg width="100%" height="100%" viewBox="0 0 2955 663" version="1.1" xmlns="http://www.w3.org/2000/svg" xmlns:xlink="http://www.w3.org/1999/xlink" xml:space="preserve" xmlns:serif="http://www.serif.com/" style="fill-rule:evenodd;clip-rule:evenodd;stroke-linejoin:round;stroke-miterlimit:2;">
    <g transform="matrix(4.16667,0,0,4.16667,0,0)">
        <path d="M120.438,61.703C131.372,61.703 140.234,52.84 140.234,41.907L122.837,41.907C121.623,41.907 120.639,40.923 120.639,39.709C120.639,38.495 121.623,37.511 122.837,37.511L140.234,37.511L140.234,33.115L122.837,33.115C121.623,33.115 120.639,32.131 120.639,30.917C120.639,29.703 121.623,28.719 122.837,28.719L140.234,28.719L140.234,24.323L122.837,24.323C121.623,24.323 120.639,23.339 120.639,22.125C120.639,20.911 121.623,19.927 122.837,19.927L140.234,19.927C140.234,8.704 130.8,-0.316 119.428,0.368C108.957,0.997 101.043,10.202 101.043,20.693L101.043,39.989C101.043,53.021 109.727,61.703 120.438,61.703ZM310.919,152.014C311.52,154.243 313.933,155.455 316.072,154.583C328.165,149.651 360.144,133.282 360.144,109.394C360.144,85.966 339.261,81.049 339.261,70.871C339.261,63.799 351.076,59.704 356.662,58.79C358.897,58.424 360.301,56.177 359.707,53.991L354.707,35.577C354.186,33.658 352.298,32.476 350.333,32.784C330.626,35.876 306.382,48.644 306.382,68.664C306.382,89.886 327.773,93.267 327.773,107.47C327.773,114.009 313.264,120.213 306.601,122.717C304.745,123.414 303.736,125.404 304.253,127.318L310.919,152.014ZM135.123,74.182C135.123,72.056 133.399,70.332 131.273,70.332L110.005,70.332C107.878,70.332 106.155,72.056 106.155,74.182L106.155,148.327C106.155,150.453 107.878,152.177 110.005,152.177L131.273,152.177C133.399,152.177 135.123,150.453 135.123,148.327L135.123,74.182ZM522,152.177L543.268,152.177C545.394,152.177 547.118,150.453 547.118,148.327L547.118,74.182C547.118,72.056 545.394,70.332 543.268,70.332L522,70.332C519.874,70.332 518.15,72.056 518.15,74.182L518.15,148.327C518.15,150.453 519.874,152.177 522,152.177ZM532.635,61.703C540.634,61.703 547.118,55.218 547.118,47.219C547.118,39.22 540.634,32.735 532.635,32.735C524.635,32.735 518.15,39.22 518.15,47.219C518.15,55.218 524.635,61.703 532.635,61.703ZM685.626,153.495C692.811,153.495 700.477,151.928 706.458,149.103C708.147,148.304 709.014,146.404 708.527,144.599L704.85,130.977C704.273,128.841 702.006,127.613 699.915,128.335C697.251,129.255 694.834,129.792 693.032,129.792C687.767,129.958 684.639,126.336 684.639,119.094L684.639,86.161L700.211,86.161C702.337,86.161 704.06,84.437 704.06,82.311L704.06,71.262C704.06,69.136 702.337,67.412 700.211,67.412L684.639,67.412L684.639,46.693C684.639,44.566 682.915,42.842 680.789,42.842L659.52,42.842C657.394,42.842 655.671,44.566 655.671,46.693L655.671,67.412L649.81,67.412C647.684,67.412 645.96,69.136 645.96,71.262L645.96,82.311C645.96,84.437 647.684,86.161 649.81,86.161L655.671,86.161L655.671,123.703C655.671,142.632 668.014,153.659 685.626,153.495ZM273.63,153.495C280.816,153.495 288.481,151.928 294.463,149.103C296.153,148.304 297.019,146.404 296.532,144.599L292.855,130.977C292.278,128.841 290.011,127.613 287.92,128.335C285.256,129.255 282.839,129.792 281.037,129.792C275.771,129.958 272.644,126.336 272.644,119.094L272.644,86.161L288.216,86.161C290.342,86.161 292.066,84.437 292.066,82.311L292.066,71.262C292.066,69.136 290.342,67.412 288.216,67.412L272.644,67.412L272.644,46.693C272.644,44.566 270.92,42.842 268.794,42.842L247.526,42.842C245.4,42.842 243.676,44.566 243.676,46.693L243.676,67.412L237.815,67.412C235.689,67.412 233.965,69.136 233.965,71.262L233.965,82.311C233.965,84.437 235.689,86.161 237.815,86.161L243.676,86.161L243.676,123.703C243.676,142.632 256.019,153.659 273.63,153.495ZM171.868,103.189L204.242,103.189C204.242,92.878 197.945,86.161 188.654,86.161C179.661,86.161 173.515,93.035 171.868,103.189ZM146.238,110.689C146.238,84.597 163.325,67.412 188.353,67.412C215.67,67.412 229.746,85.382 229.26,114.011C229.226,116.081 227.482,117.718 225.412,117.718L172.315,117.718C174.865,127.717 181.758,133.342 191.351,133.342C197.311,133.342 203.165,131.217 208.092,127.156C209.637,125.884 211.886,125.975 213.288,127.405L221.688,135.968C223.2,137.509 223.162,140.004 221.591,141.486C213.495,149.12 202.377,153.496 189.102,153.496C162.723,153.496 146.238,136.311 146.238,110.689ZM616.237,103.189C616.237,92.878 609.94,86.161 600.649,86.161C591.657,86.161 585.511,93.035 583.863,103.189L616.237,103.189ZM641.257,114.011C641.222,116.081 639.477,117.718 637.407,117.718L584.311,117.718C586.861,127.717 593.754,133.342 603.346,133.342C609.307,133.342 615.16,131.217 620.088,127.156C621.633,125.884 623.882,125.975 625.284,127.405L633.685,135.968C635.195,137.509 635.157,140.004 633.587,141.486C625.49,149.12 614.373,153.496 601.097,153.496C574.719,153.496 558.233,136.311 558.233,110.689C558.233,84.597 575.321,67.412 600.349,67.412C627.666,67.412 641.742,85.382 641.257,114.011ZM68.472,74.214C68.472,62.856 61.395,56.766 49.213,56.766L30.122,56.766L30.122,92.154L49.213,92.154C61.395,92.154 68.472,85.9 68.472,74.214ZM50.696,116.185L30.122,116.185L30.122,148.327C30.122,150.453 28.397,152.177 26.271,152.177L3.85,152.177C1.723,152.177 0,150.453 0,148.327L0,36.585C0,34.459 1.723,32.735 3.85,32.735L50.696,32.735C80.158,32.735 97.111,47.549 97.111,73.225C97.111,100.384 80.158,116.185 50.696,116.185Z" style="fill:white;fill-rule:nonzero;"/>
        <path d="M392.377,74.767L391.729,75.414L391.729,82.967L392.377,83.615L396.713,83.615L397.359,82.967L397.359,75.414L396.713,74.767L392.377,74.767Z" style="fill:rgb(0,1,4);fill-rule:nonzero;"/>
        <path d="M392.377,90.542L391.729,91.189L391.729,98.743L392.377,99.389L396.713,99.389L397.359,98.743L397.359,91.189L396.713,90.542L392.377,90.542Z" style="fill:rgb(0,1,4);fill-rule:nonzero;"/>
        <path d="M398.655,84.263L398.009,84.911L398.009,89.246L398.655,89.893L406.209,89.893L406.856,89.246L406.856,84.911L406.209,84.263L398.655,84.263Z" style="fill:rgb(0,1,4);fill-rule:nonzero;"/>
        <path d="M382.881,84.263L382.233,84.911L382.233,89.246L382.881,89.893L390.434,89.893L391.081,89.246L391.081,84.911L390.434,84.263L382.881,84.263Z" style="fill:rgb(0,1,4);fill-rule:nonzero;"/>
        <path d="M483.46,92.003C481.42,92.003 479.767,93.656 479.767,95.696C479.767,97.736 481.42,99.389 483.46,99.389C485.499,99.389 487.153,97.736 487.153,95.696C487.153,93.656 485.499,92.003 483.46,92.003Z" style="fill:rgb(0,1,4);fill-rule:nonzero;"/>
        <path d="M492.078,83.385C490.038,83.385 488.385,85.039 488.385,87.078C488.385,89.118 490.038,90.772 492.078,90.772C494.117,90.772 495.771,89.118 495.771,87.078C495.771,85.039 494.117,83.385 492.078,83.385Z" style="fill:rgb(0,1,4);fill-rule:nonzero;"/>
        <path d="M474.842,83.385C472.802,83.385 471.148,85.039 471.148,87.078C471.148,89.118 472.802,90.772 474.842,90.772C476.882,90.772 478.535,89.118 478.535,87.078C478.535,85.039 476.882,83.385 474.842,83.385Z" style="fill:rgb(0,1,4);fill-rule:nonzero;"/>
        <path d="M483.46,74.767C481.42,74.767 479.767,76.421 479.767,78.461C479.767,80.5 481.42,82.154 483.46,82.154C485.499,82.154 487.153,80.5 487.153,78.461C487.153,76.421 485.499,74.767 483.46,74.767Z" style="fill:rgb(0,1,4);fill-rule:nonzero;"/>
        <path d="M439.002,74.767C435.603,74.767 432.847,77.523 432.847,80.923C432.847,84.322 435.603,87.078 439.002,87.078C442.402,87.078 445.158,84.322 445.158,80.923C445.158,77.523 442.402,74.767 439.002,74.767Z" style="fill:rgb(0,1,4);fill-rule:nonzero;"/>
        <path d="M495.771,87.078C495.771,89.118 494.117,90.772 492.078,90.772C490.038,90.772 488.385,89.118 488.385,87.078C488.385,85.039 490.038,83.385 492.078,83.385C494.117,83.385 495.771,85.039 495.771,87.078ZM483.46,82.154C481.42,82.154 479.767,80.5 479.767,78.461C479.767,76.421 481.42,74.767 483.46,74.767C485.499,74.767 487.153,76.421 487.153,78.461C487.153,80.5 485.499,82.154 483.46,82.154ZM483.46,99.389C481.42,99.389 479.767,97.736 479.767,95.696C479.767,93.656 481.42,92.003 483.46,92.003C485.499,92.003 487.153,93.656 487.153,95.696C487.153,97.736 485.499,99.389 483.46,99.389ZM474.842,90.772C472.802,90.772 471.148,89.118 471.148,87.078C471.148,85.039 472.802,83.385 474.842,83.385C476.882,83.385 478.535,85.039 478.535,87.078C478.535,89.118 476.882,90.772 474.842,90.772ZM439.002,87.078C435.603,87.078 432.847,84.322 432.847,80.923C432.847,77.523 435.603,74.767 439.002,74.767C442.402,74.767 445.158,77.523 445.158,80.923C445.158,84.322 442.402,87.078 439.002,87.078ZM406.856,89.246L406.209,89.893L398.655,89.893L398.009,89.246L398.009,84.911L398.655,84.263L406.209,84.263L406.856,84.911L406.856,89.246ZM397.359,82.967L396.713,83.615L392.377,83.615L391.729,82.967L391.729,75.414L392.377,74.767L396.713,74.767L397.359,75.414L397.359,82.967ZM397.359,98.743L396.713,99.389L392.377,99.389L391.729,98.743L391.729,91.189L392.377,90.542L396.713,90.542L397.359,91.189L397.359,98.743ZM391.081,89.246L390.434,89.893L382.881,89.893L382.233,89.246L382.233,84.911L382.881,84.263L390.434,84.263L391.081,84.911L391.081,89.246ZM483.46,58.458C478.139,58.458 473.234,62.243 469.315,68.612L468.341,68.612C468.341,66.86 468.79,64.558 469.733,62.456L408.27,62.456C409.215,64.558 409.664,66.86 409.664,68.612L408.689,68.612C404.77,62.243 399.866,58.458 394.545,58.458C381.701,58.458 371.29,80.506 371.29,107.702C371.29,134.9 381.701,154.896 394.545,154.896C403.374,154.896 411.054,146.528 414.992,131.177C407.273,129.841 401.385,123.098 401.385,115.003C401.385,105.951 408.748,98.589 417.8,98.589C426.851,98.589 434.215,105.951 434.215,115.003C434.215,116.75 433.939,118.434 433.432,120.014L444.573,120.014C444.065,118.434 443.79,116.75 443.79,115.003C443.79,105.951 451.154,98.589 460.205,98.589C469.257,98.589 476.62,105.951 476.62,115.003C476.62,123.098 470.73,129.841 463.013,131.177C466.95,146.528 474.631,154.896 483.46,154.896C496.303,154.896 506.715,134.9 506.715,107.702C506.715,80.506 496.303,58.458 483.46,58.458Z" style="fill:rgb(85,185,71);fill-rule:nonzero;"/>
        <path d="M468.515,66.56L409.49,66.56L408.27,62.456L469.733,62.456L468.515,66.56Z" style="fill:rgb(118,192,67);fill-rule:nonzero;"/>
        <path d="M483.46,154.896C474.631,154.896 466.95,146.528 463.013,131.177C470.73,129.841 476.62,123.098 476.62,115.003C476.62,105.951 469.257,98.589 460.205,98.589C451.154,98.589 443.79,105.951 443.79,115.003C443.79,116.75 444.065,118.434 444.573,120.014L433.432,120.014C433.939,118.434 434.215,116.75 434.215,115.003C434.215,105.951 426.851,98.589 417.8,98.589C408.748,98.589 401.385,105.951 401.385,115.003C401.385,123.098 407.273,129.841 414.992,131.177C411.054,146.528 403.374,154.896 394.545,154.896C381.701,154.896 371.29,134.9 371.29,107.702C371.29,80.506 381.701,58.458 394.545,58.458C399.866,58.458 404.77,62.243 408.689,68.612L409.664,68.612C409.664,66.86 409.215,64.558 408.27,62.456L469.733,62.456C468.79,64.558 468.341,66.86 468.341,68.612L469.315,68.612C473.234,62.243 478.139,58.458 483.46,58.458C496.303,58.458 506.715,80.506 506.715,107.702C506.715,134.9 496.303,154.896 483.46,154.896ZM483.46,54.354C479.774,54.354 476.26,55.776 473.052,58.352L404.953,58.352C401.745,55.776 398.23,54.354 394.545,54.354C378.705,54.354 367.186,78.239 367.186,107.702C367.186,137.166 378.705,158.999 394.545,158.999C406.021,158.999 414.59,148.967 419.064,131.389C419.102,131.378 419.14,131.368 419.178,131.361C424.287,130.934 428.738,128.157 431.445,124.117L446.56,124.117C449.267,128.157 453.718,130.934 458.827,131.361C458.865,131.368 458.902,131.378 458.94,131.389C463.415,148.967 471.983,158.999 483.46,158.999C499.299,158.999 510.818,137.166 510.818,107.702C510.818,78.239 499.299,54.354 483.46,54.354Z" style="fill:rgb(0,1,4);fill-rule:nonzero;"/>
        <path d="M434.189,115.91C434.111,117.333 433.851,118.709 433.432,120.014L444.573,120.014C444.153,118.709 443.894,117.333 443.815,115.91L434.189,115.91Z" style="fill:rgb(85,185,71);fill-rule:nonzero;"/>
        <path d="M371.687,98.589C374.296,78.722 384.895,62.561 394.545,62.561C399.508,62.561 404.398,64.755 407.715,68.612L408.689,68.612C404.77,62.243 399.866,58.458 394.545,58.458C383.172,58.458 373.707,75.746 371.687,98.589Z" style="fill:rgb(118,192,67);fill-rule:nonzero;"/>
        <path d="M506.316,98.589C503.709,78.722 493.109,62.561 483.46,62.561C478.497,62.561 473.606,64.755 470.29,68.612L469.315,68.612C473.234,62.243 478.139,58.458 483.46,58.458C494.833,58.458 504.298,75.746 506.316,98.589Z" style="fill:rgb(118,192,67);fill-rule:nonzero;"/>
        <path d="M506.694,105.651C506.186,131.897 495.978,150.792 483.46,150.792C476.681,150.792 471.095,145.207 467.126,133.38C472.733,130.769 476.62,125.084 476.62,118.491L476.62,115.003C476.62,123.098 470.73,129.841 463.013,131.177L463.012,131.177C466.95,146.528 474.63,154.896 483.46,154.896C496.303,154.896 506.715,134.9 506.715,107.702C506.715,107.015 506.708,106.331 506.694,105.651Z" style="fill:rgb(60,137,64);fill-rule:nonzero;"/>
        <path d="M371.31,105.651C371.818,131.897 382.025,150.792 394.545,150.792C401.323,150.792 406.909,145.207 410.878,133.38C405.271,130.77 401.384,125.085 401.384,118.491L401.384,115.004C401.384,123.098 407.273,129.842 414.992,131.178L414.992,131.177C411.055,146.528 403.374,154.897 394.545,154.897C381.701,154.897 371.29,134.901 371.29,107.703C371.29,107.016 371.297,106.331 371.31,105.651Z" style="fill:rgb(60,137,64);fill-rule:nonzero;"/>
        <path d="M417.8,94.485C408.733,94.485 401.384,101.833 401.384,110.9L401.384,115.004L401.385,115.003C401.385,105.951 408.748,98.589 417.8,98.589C426.851,98.589 434.215,105.951 434.215,115.003L434.215,110.9C434.215,101.833 426.865,94.485 417.8,94.485Z" style="fill:rgb(118,192,67);fill-rule:nonzero;"/>
        <path d="M460.205,94.485C451.139,94.485 443.79,101.833 443.79,110.9L443.79,115.004L443.79,115.003C443.79,105.951 451.154,98.589 460.205,98.589C469.257,98.589 476.62,105.951 476.62,115.003L476.62,110.9C476.62,101.833 469.27,94.485 460.205,94.485Z" style="fill:rgb(118,192,67);fill-rule:nonzero;"/>
        <path d="M417.8,102.692C414.399,102.692 411.644,105.447 411.644,108.848C411.644,112.247 414.399,115.003 417.8,115.003C421.199,115.003 423.955,112.247 423.955,108.848C423.955,105.447 421.199,102.692 417.8,102.692Z" style="fill:rgb(113,117,118);fill-rule:nonzero;"/>
        <path d="M460.205,102.692C456.806,102.692 454.05,105.447 454.05,108.848C454.05,112.247 456.806,115.003 460.205,115.003C463.604,115.003 466.36,112.247 466.36,108.848C466.36,105.447 463.604,102.692 460.205,102.692Z" style="fill:rgb(113,117,118);fill-rule:nonzero;"/>
    </g>
</svg>
