<?xml version="1.0" encoding="UTF-8" standalone="no"?>
<!DOCTYPE svg PUBLIC "-//W3C//DTD SVG 1.1//EN" "http://www.w3.org/Graphics/SVG/1.1/DTD/svg11.dtd">
<svg width="100%" height="100%" viewBox="0 0 888 646" version="1.1" xmlns="http://www.w3.org/2000/svg" xmlns:xlink="http://www.w3.org/1999/xlink" xml:space="preserve" xmlns:serif="http://www.serif.com/" style="fill-rule:evenodd;clip-rule:evenodd;stroke-linejoin:round;stroke-miterlimit:2;">
    <g transform="matrix(4.16667,0,0,4.16667,0,0)">
        <path d="M37.286,30.322L36.328,31.28L36.328,42.46L37.286,43.418L43.703,43.418L44.661,42.46L44.661,31.28L43.703,30.322L37.286,30.322Z" style="fill:rgb(0,1,4);fill-rule:nonzero;"/>
        <path d="M37.286,53.672L36.328,54.63L36.328,65.81L37.286,66.768L43.703,66.768L44.661,65.81L44.661,54.63L43.703,53.672L37.286,53.672Z" style="fill:rgb(0,1,4);fill-rule:nonzero;"/>
        <path d="M46.58,44.379L45.621,45.337L45.621,51.754L46.58,52.712L57.759,52.712L58.717,51.754L58.717,45.337L57.759,44.379L46.58,44.379Z" style="fill:rgb(0,1,4);fill-rule:nonzero;"/>
        <path d="M23.229,44.379L22.272,45.337L22.272,51.754L23.229,52.712L34.41,52.712L35.368,51.754L35.368,45.337L34.41,44.379L23.229,44.379Z" style="fill:rgb(0,1,4);fill-rule:nonzero;"/>
        <path d="M172.103,55.834C169.084,55.834 166.637,58.282 166.637,61.301C166.637,64.32 169.084,66.768 172.103,66.768C175.123,66.768 177.57,64.32 177.57,61.301C177.57,58.282 175.123,55.834 172.103,55.834Z" style="fill:rgb(0,1,4);fill-rule:nonzero;"/>
        <path d="M184.859,43.078C181.841,43.078 179.392,45.526 179.392,48.545C179.392,51.564 181.841,54.012 184.859,54.012C187.879,54.012 190.326,51.564 190.326,48.545C190.326,45.526 187.879,43.078 184.859,43.078Z" style="fill:rgb(0,1,4);fill-rule:nonzero;"/>
        <path d="M159.348,43.078C156.328,43.078 153.881,45.526 153.881,48.545C153.881,51.564 156.328,54.012 159.348,54.012C162.367,54.012 164.814,51.564 164.814,48.545C164.814,45.526 162.367,43.078 159.348,43.078Z" style="fill:rgb(0,1,4);fill-rule:nonzero;"/>
        <path d="M172.103,30.323C169.084,30.323 166.637,32.77 166.637,35.789C166.637,38.808 169.084,41.256 172.103,41.256C175.123,41.256 177.57,38.808 177.57,35.789C177.57,32.77 175.123,30.323 172.103,30.323Z" style="fill:rgb(0,1,4);fill-rule:nonzero;"/>
        <path d="M106.299,30.322C101.267,30.322 97.187,34.402 97.187,39.434C97.187,44.466 101.267,48.545 106.299,48.545C111.331,48.545 115.411,44.466 115.411,39.434C115.411,34.402 111.331,30.322 106.299,30.322Z" style="fill:rgb(0,1,4);fill-rule:nonzero;"/>
        <path d="M190.326,48.545C190.326,51.564 187.879,54.012 184.859,54.012C181.841,54.012 179.392,51.564 179.392,48.545C179.392,45.526 181.841,43.078 184.859,43.078C187.879,43.078 190.326,45.526 190.326,48.545ZM172.103,41.256C169.084,41.256 166.637,38.808 166.637,35.789C166.637,32.77 169.084,30.323 172.103,30.323C175.123,30.323 177.57,32.77 177.57,35.789C177.57,38.808 175.123,41.256 172.103,41.256ZM172.103,66.768C169.084,66.768 166.637,64.32 166.637,61.301C166.637,58.282 169.084,55.834 172.103,55.834C175.123,55.834 177.57,58.282 177.57,61.301C177.57,64.32 175.123,66.768 172.103,66.768ZM159.348,54.012C156.328,54.012 153.881,51.564 153.881,48.545C153.881,45.526 156.328,43.078 159.348,43.078C162.367,43.078 164.814,45.526 164.814,48.545C164.814,51.564 162.367,54.012 159.348,54.012ZM106.299,48.545C101.267,48.545 97.187,44.466 97.187,39.434C97.187,34.402 101.267,30.322 106.299,30.322C111.331,30.322 115.411,34.402 115.411,39.434C115.411,44.466 111.331,48.545 106.299,48.545ZM58.717,51.754L57.759,52.712L46.58,52.712L45.621,51.754L45.621,45.337L46.58,44.379L57.759,44.379L58.717,45.337L58.717,51.754ZM44.661,42.46L43.703,43.418L37.286,43.418L36.328,42.46L36.328,31.28L37.286,30.322L43.703,30.322L44.661,31.28L44.661,42.46ZM44.661,65.81L43.703,66.768L37.286,66.768L36.328,65.81L36.328,54.63L37.286,53.672L43.703,53.672L44.661,54.63L44.661,65.81ZM35.368,51.754L34.41,52.712L23.229,52.712L22.272,51.754L22.272,45.337L23.229,44.379L34.41,44.379L35.368,45.337L35.368,51.754ZM172.103,6.182C164.226,6.182 156.968,11.785 151.167,21.211L149.724,21.211C149.724,18.619 150.39,15.211 151.787,12.099L60.811,12.099C62.208,15.211 62.873,18.619 62.873,21.211L61.431,21.211C55.63,11.785 48.371,6.182 40.495,6.182C21.484,6.182 6.074,38.816 6.074,79.073C6.074,119.329 21.484,148.926 40.495,148.926C53.563,148.926 64.931,136.539 70.76,113.819C59.335,111.841 50.618,101.86 50.618,89.879C50.618,76.481 61.518,65.582 74.915,65.582C88.312,65.582 99.212,76.481 99.212,89.879C99.212,92.465 98.805,94.956 98.053,97.296L114.545,97.296C113.793,94.956 113.386,92.465 113.386,89.879C113.386,76.481 124.285,65.582 137.682,65.582C151.08,65.582 161.979,76.481 161.979,89.879C161.979,101.86 153.263,111.841 141.838,113.819C147.667,136.539 159.034,148.926 172.103,148.926C191.113,148.926 206.524,119.329 206.524,79.073C206.524,38.816 191.113,6.182 172.103,6.182Z" style="fill:rgb(85,185,71);fill-rule:nonzero;"/>
        <path d="M149.981,18.174L62.616,18.174L60.811,12.099L151.787,12.099L149.981,18.174Z" style="fill:rgb(118,192,67);fill-rule:nonzero;"/>
        <path d="M172.103,148.926C159.035,148.926 147.667,136.539 141.838,113.819C153.263,111.841 161.979,101.86 161.979,89.879C161.979,76.481 151.08,65.582 137.682,65.582C124.285,65.582 113.386,76.481 113.386,89.879C113.386,92.465 113.793,94.956 114.545,97.296L98.053,97.296C98.805,94.956 99.212,92.465 99.212,89.879C99.212,76.481 88.313,65.582 74.915,65.582C61.518,65.582 50.618,76.481 50.618,89.879C50.618,101.86 59.335,111.841 70.76,113.819C64.931,136.539 53.563,148.926 40.495,148.926C21.484,148.926 6.074,119.329 6.074,79.073C6.074,38.816 21.484,6.182 40.495,6.182C48.371,6.182 55.63,11.785 61.431,21.211L62.873,21.211C62.873,18.619 62.208,15.211 60.811,12.099L151.787,12.099C150.39,15.211 149.724,18.619 149.724,21.211L151.167,21.211C156.968,11.785 164.226,6.182 172.103,6.182C191.113,6.182 206.524,38.816 206.524,79.073C206.524,119.329 191.113,148.926 172.103,148.926ZM172.103,0.107C166.648,0.107 161.446,2.212 156.697,6.025L55.901,6.025C51.151,2.212 45.949,0.107 40.495,0.107C17.05,0.107 0,35.461 0,79.073C0,122.683 17.05,155 40.495,155C57.481,155 70.164,140.151 76.787,114.13C76.843,114.116 76.899,114.101 76.955,114.089C84.517,113.457 91.106,109.348 95.113,103.37L117.485,103.37C121.492,109.348 128.08,113.457 135.642,114.089C135.699,114.101 135.755,114.116 135.81,114.13C142.433,140.151 155.117,155 172.103,155C195.548,155 212.599,122.683 212.599,79.073C212.599,35.461 195.548,0.107 172.103,0.107Z" style="fill:rgb(0,1,4);fill-rule:nonzero;"/>
        <path d="M99.175,91.222C99.059,93.328 98.674,95.364 98.053,97.296L114.545,97.296C113.925,95.364 113.539,93.328 113.424,91.222L99.175,91.222Z" style="fill:rgb(85,185,71);fill-rule:nonzero;"/>
        <path d="M6.662,65.582C10.522,36.177 26.212,12.256 40.495,12.256C47.84,12.256 55.079,15.503 59.988,21.211L61.431,21.211C55.63,11.785 48.371,6.182 40.495,6.182C23.661,6.182 9.651,31.771 6.662,65.582Z" style="fill:rgb(118,192,67);fill-rule:nonzero;"/>
        <path d="M205.935,65.582C202.075,36.177 186.386,12.256 172.103,12.256C164.758,12.256 157.519,15.503 152.61,21.211L151.167,21.211C156.968,11.785 164.226,6.182 172.103,6.182C188.936,6.182 202.947,31.771 205.935,65.582Z" style="fill:rgb(118,192,67);fill-rule:nonzero;"/>
        <path d="M206.494,76.036C205.742,114.883 190.633,142.852 172.103,142.852C162.07,142.852 153.801,134.585 147.927,117.079C156.226,113.214 161.979,104.8 161.979,95.042L161.979,89.879C161.979,101.86 153.263,111.841 141.838,113.819L141.838,113.818C147.667,136.539 159.034,148.926 172.103,148.926C191.113,148.926 206.524,119.329 206.524,79.073C206.524,78.055 206.514,77.043 206.494,76.036Z" style="fill:rgb(60,137,64);fill-rule:nonzero;"/>
        <path d="M6.103,76.036C6.855,114.884 21.964,142.853 40.494,142.853C50.528,142.853 58.796,134.586 64.67,117.079C56.371,113.215 50.618,104.801 50.618,95.043L50.618,89.88C50.618,101.86 59.335,111.842 70.76,113.82L70.76,113.819C64.931,136.539 53.563,148.927 40.494,148.927C21.484,148.927 6.073,119.329 6.073,79.073C6.073,78.056 6.083,77.043 6.103,76.036Z" style="fill:rgb(60,137,64);fill-rule:nonzero;"/>
        <path d="M74.915,59.508C61.496,59.508 50.618,70.386 50.618,83.805L50.618,89.88L50.618,89.879C50.618,76.481 61.518,65.582 74.915,65.582C88.312,65.582 99.212,76.481 99.212,89.879L99.212,83.805C99.212,70.386 88.334,59.508 74.915,59.508Z" style="fill:rgb(118,192,67);fill-rule:nonzero;"/>
        <path d="M137.682,59.508C124.264,59.508 113.386,70.386 113.386,83.805L113.386,89.88L113.386,89.879C113.386,76.481 124.285,65.582 137.682,65.582C151.08,65.582 161.979,76.481 161.979,89.879L161.979,83.805C161.979,70.386 151.101,59.508 137.682,59.508Z" style="fill:rgb(118,192,67);fill-rule:nonzero;"/>
        <path d="M74.915,71.656C69.883,71.656 65.804,75.735 65.804,80.767C65.804,85.8 69.883,89.879 74.915,89.879C79.947,89.879 84.026,85.8 84.026,80.767C84.026,75.735 79.947,71.656 74.915,71.656Z" style="fill:rgb(113,117,118);fill-rule:nonzero;"/>
        <path d="M137.682,71.656C132.65,71.656 128.571,75.735 128.571,80.767C128.571,85.8 132.65,89.879 137.682,89.879C142.715,89.879 146.794,85.8 146.794,80.767C146.794,75.735 142.715,71.656 137.682,71.656Z" style="fill:rgb(113,117,118);fill-rule:nonzero;"/>
    </g>
</svg>
